<svg xmlns="http://www.w3.org/2000/svg" width="522.91" height="747.81" viewBox="0 0 522.91 747.81"><defs><style>.a{fill:#4adda5;}.a,.b{opacity:0.4;}.b{fill:#db4b6a;}</style></defs><path class="a" d="M132.34,226.74h-5.88a2.13,2.13,0,0,1-2.13-2.13v-5.88a2.14,2.14,0,0,0-2.14-2.14h-4.65a2.13,2.13,0,0,0-2.13,2.14v5.88a2.13,2.13,0,0,1-2.14,2.13h-5.56a2.45,2.45,0,0,0-2.45,2.45v4.33a2.13,2.13,0,0,0,2.13,2.14h5.88a2.14,2.14,0,0,1,2.14,2.14v5.87a2.13,2.13,0,0,0,2.13,2.14h4.65a2.14,2.14,0,0,0,2.14-2.14V237.8a2.13,2.13,0,0,1,2.13-2.14h5.88a2.14,2.14,0,0,0,2.14-2.14v-4.64A2.14,2.14,0,0,0,132.34,226.74Z" transform="translate(-20.77 -15.95)"/><path class="a" d="M463.94,589.38h-5.88a2.13,2.13,0,0,1-2.14-2.13v-5.88a2.13,2.13,0,0,0-2.13-2.14h-4.65a2.14,2.14,0,0,0-2.14,2.14v5.88a2.13,2.13,0,0,1-2.13,2.13H439.3a2.45,2.45,0,0,0-2.45,2.45v4.34A2.13,2.13,0,0,0,439,598.3h5.88a2.13,2.13,0,0,1,2.13,2.14v5.88a2.13,2.13,0,0,0,2.14,2.13h4.65a2.13,2.13,0,0,0,2.13-2.13v-5.88a2.14,2.14,0,0,1,2.14-2.14h5.88a2.13,2.13,0,0,0,2.13-2.13v-4.65A2.13,2.13,0,0,0,463.94,589.38Z" transform="translate(-20.77 -15.95)"/><path class="a" d="M388,744.69h-5.88a2.13,2.13,0,0,1-2.13-2.14v-5.88a2.14,2.14,0,0,0-2.14-2.13h-4.64a2.14,2.14,0,0,0-2.14,2.13v5.88a2.14,2.14,0,0,1-2.13,2.14h-5.57a2.45,2.45,0,0,0-2.45,2.45v4.33a2.14,2.14,0,0,0,2.14,2.14h5.88a2.13,2.13,0,0,1,2.13,2.13v5.88a2.14,2.14,0,0,0,2.14,2.14h4.64a2.14,2.14,0,0,0,2.14-2.14v-5.88a2.13,2.13,0,0,1,2.13-2.13H388a2.14,2.14,0,0,0,2.14-2.14v-4.64A2.14,2.14,0,0,0,388,744.69Z" transform="translate(-20.77 -15.95)"/><path class="a" d="M504.23,178.52h-5.88a2.13,2.13,0,0,1-2.14-2.13v-5.88a2.13,2.13,0,0,0-2.13-2.14h-4.65a2.13,2.13,0,0,0-2.13,2.14v5.88a2.13,2.13,0,0,1-2.14,2.13h-5.57a2.45,2.45,0,0,0-2.44,2.45v4.33a2.13,2.13,0,0,0,2.13,2.14h5.88a2.14,2.14,0,0,1,2.14,2.14v5.87a2.13,2.13,0,0,0,2.13,2.14h4.65a2.13,2.13,0,0,0,2.13-2.14v-5.87a2.14,2.14,0,0,1,2.14-2.14h5.88a2.14,2.14,0,0,0,2.14-2.14v-4.64A2.14,2.14,0,0,0,504.23,178.52Z" transform="translate(-20.77 -15.95)"/><path class="a" d="M373.36,142.85h-5.88a2.13,2.13,0,0,1-2.13-2.13v-5.88a2.14,2.14,0,0,0-2.14-2.14h-4.64a2.14,2.14,0,0,0-2.14,2.14v5.88a2.13,2.13,0,0,1-2.13,2.13h-5.57a2.45,2.45,0,0,0-2.45,2.45v4.33a2.14,2.14,0,0,0,2.14,2.14h5.88a2.13,2.13,0,0,1,2.13,2.14v5.88a2.14,2.14,0,0,0,2.14,2.13h4.64a2.14,2.14,0,0,0,2.14-2.13v-5.88a2.13,2.13,0,0,1,2.13-2.14h5.88a2.14,2.14,0,0,0,2.14-2.14V145A2.14,2.14,0,0,0,373.36,142.85Z" transform="translate(-20.77 -15.95)"/><path class="a" d="M224.16,83.4h-5.88a2.13,2.13,0,0,1-2.14-2.13V75.39A2.13,2.13,0,0,0,214,73.25h-4.65a2.14,2.14,0,0,0-2.14,2.14v5.88a2.13,2.13,0,0,1-2.13,2.13h-5.57a2.45,2.45,0,0,0-2.45,2.45v4.34a2.14,2.14,0,0,0,2.14,2.13h5.88a2.13,2.13,0,0,1,2.13,2.14v5.88a2.13,2.13,0,0,0,2.14,2.13H214a2.13,2.13,0,0,0,2.13-2.13V94.46a2.14,2.14,0,0,1,2.14-2.14h5.88a2.13,2.13,0,0,0,2.13-2.13V85.54A2.13,2.13,0,0,0,224.16,83.4Z" transform="translate(-20.77 -15.95)"/><path class="a" d="M55.34,436.15H49.46A2.13,2.13,0,0,1,47.33,434v-5.88A2.13,2.13,0,0,0,45.19,426H40.54a2.13,2.13,0,0,0-2.13,2.13V434a2.14,2.14,0,0,1-2.14,2.14H30.7a2.44,2.44,0,0,0-2.44,2.44v4.34a2.13,2.13,0,0,0,2.13,2.13h5.88a2.14,2.14,0,0,1,2.14,2.14v5.88a2.13,2.13,0,0,0,2.13,2.13h4.65a2.13,2.13,0,0,0,2.14-2.13V447.2a2.13,2.13,0,0,1,2.13-2.14h5.88a2.13,2.13,0,0,0,2.14-2.13v-4.65A2.13,2.13,0,0,0,55.34,436.15Z" transform="translate(-20.77 -15.95)"/><path class="a" d="M388,321.2h-5.88a2.13,2.13,0,0,1-2.13-2.13v-5.88a2.14,2.14,0,0,0-2.14-2.14h-4.64a2.14,2.14,0,0,0-2.14,2.14v5.88a2.14,2.14,0,0,1-2.13,2.13h-5.57a2.45,2.45,0,0,0-2.45,2.45V328a2.14,2.14,0,0,0,2.14,2.14h5.88a2.13,2.13,0,0,1,2.13,2.13v5.88a2.14,2.14,0,0,0,2.14,2.14h4.64a2.14,2.14,0,0,0,2.14-2.14v-5.88a2.13,2.13,0,0,1,2.13-2.13H388a2.14,2.14,0,0,0,2.14-2.14v-4.64A2.14,2.14,0,0,0,388,321.2Z" transform="translate(-20.77 -15.95)"/><path class="a" d="M293.14,401.38h-5.88a2.14,2.14,0,0,1-2.14-2.14v-5.88a2.13,2.13,0,0,0-2.13-2.13h-4.65a2.13,2.13,0,0,0-2.13,2.13v5.88a2.14,2.14,0,0,1-2.14,2.14H268.5a2.45,2.45,0,0,0-2.44,2.45v4.33a2.13,2.13,0,0,0,2.13,2.14h5.88a2.13,2.13,0,0,1,2.14,2.13v5.88a2.13,2.13,0,0,0,2.13,2.14H283a2.13,2.13,0,0,0,2.13-2.14v-5.88a2.13,2.13,0,0,1,2.14-2.13h5.88a2.13,2.13,0,0,0,2.13-2.14v-4.64A2.13,2.13,0,0,0,293.14,401.38Z" transform="translate(-20.77 -15.95)"/><path class="a" d="M541.55,427.22h-5.88a2.13,2.13,0,0,1-2.13-2.14V419.2a2.13,2.13,0,0,0-2.14-2.13h-4.65a2.13,2.13,0,0,0-2.13,2.13v5.88a2.14,2.14,0,0,1-2.14,2.14h-5.56a2.44,2.44,0,0,0-2.45,2.45V434a2.13,2.13,0,0,0,2.13,2.14h5.88a2.13,2.13,0,0,1,2.14,2.13v5.88a2.13,2.13,0,0,0,2.13,2.14h4.65a2.14,2.14,0,0,0,2.14-2.14v-5.88a2.13,2.13,0,0,1,2.13-2.13h5.88a2.14,2.14,0,0,0,2.14-2.14v-4.65A2.14,2.14,0,0,0,541.55,427.22Z" transform="translate(-20.77 -15.95)"/><path class="a" d="M345.14,26.1h-5.88A2.13,2.13,0,0,1,337.13,24V18.08A2.14,2.14,0,0,0,335,16h-4.64a2.14,2.14,0,0,0-2.14,2.13V24a2.14,2.14,0,0,1-2.14,2.14h-5.56a2.45,2.45,0,0,0-2.45,2.45v4.33A2.14,2.14,0,0,0,320.19,35h5.88a2.13,2.13,0,0,1,2.14,2.13V43a2.14,2.14,0,0,0,2.14,2.14H335A2.14,2.14,0,0,0,337.13,43V37.15A2.13,2.13,0,0,1,339.26,35h5.88a2.14,2.14,0,0,0,2.14-2.14V28.24A2.14,2.14,0,0,0,345.14,26.1Z" transform="translate(-20.77 -15.95)"/><path class="a" d="M194.94,544.47h-5.88a2.14,2.14,0,0,1-2.14-2.14v-5.88a2.13,2.13,0,0,0-2.13-2.13h-4.65a2.13,2.13,0,0,0-2.13,2.13v5.88a2.14,2.14,0,0,1-2.14,2.14H170.3a2.45,2.45,0,0,0-2.45,2.44v4.34a2.13,2.13,0,0,0,2.14,2.13h5.88a2.14,2.14,0,0,1,2.14,2.14v5.88a2.13,2.13,0,0,0,2.13,2.13h4.65a2.13,2.13,0,0,0,2.13-2.13v-5.88a2.14,2.14,0,0,1,2.14-2.14h5.88a2.13,2.13,0,0,0,2.13-2.13V546.6A2.13,2.13,0,0,0,194.94,544.47Z" transform="translate(-20.77 -15.95)"/><path class="a" d="M268.08,721.16H262.2a2.13,2.13,0,0,1-2.13-2.13v-5.88a2.14,2.14,0,0,0-2.14-2.14h-4.64a2.14,2.14,0,0,0-2.14,2.14V719a2.13,2.13,0,0,1-2.14,2.13h-5.56a2.45,2.45,0,0,0-2.45,2.45V728a2.14,2.14,0,0,0,2.13,2.13H249a2.14,2.14,0,0,1,2.14,2.14v5.88a2.13,2.13,0,0,0,2.14,2.13h4.64a2.13,2.13,0,0,0,2.14-2.13v-5.88a2.13,2.13,0,0,1,2.13-2.14h5.88a2.14,2.14,0,0,0,2.14-2.13V723.3A2.14,2.14,0,0,0,268.08,721.16Z" transform="translate(-20.77 -15.95)"/><rect class="b" x="140.64" y="366.36" width="29.78" height="8.92" rx="2.44"/><rect class="b" x="36.7" y="286.18" width="29.78" height="8.92" rx="2.44"/><rect class="b" x="478.8" y="694.16" width="29.78" height="8.92" rx="2.44"/><rect class="b" x="401.19" y="468.25" width="29.78" height="8.92" rx="2.44"/><rect class="b" x="410.02" y="366.36" width="29.78" height="8.92" rx="2.44"/><rect class="b" x="249.44" y="206.33" width="29.78" height="8.92" rx="2.44"/><rect class="b" x="485.59" y="97.84" width="29.78" height="8.92" rx="2.44"/><rect class="b" y="10.15" width="29.78" height="8.92" rx="2.44"/><rect class="b" x="44.67" y="93.38" width="29.78" height="8.92" rx="2.44"/><rect class="b" x="297" y="621.16" width="29.78" height="8.92" rx="2.44"/><rect class="b" x="14.89" y="543.13" width="29.78" height="8.92" rx="2.44"/><rect class="b" x="264.33" y="459.34" width="29.78" height="8.92" rx="2.44"/><rect class="b" x="478.8" y="277.27" width="29.78" height="8.92" rx="2.44"/><rect class="b" x="369.33" y="37.74" width="29.78" height="8.92" rx="2.44"/><rect class="b" x="55.9" y="709.67" width="29.78" height="8.92" rx="2.44"/></svg>